HIERARCHY
ROOT Hips
{
  OFFSET -187.679 86.5976 -156.378
  CHANNELS 6 Xposition Yposition Zposition Zrotation Xrotation Yrotation
  JOINT LeftUpLeg
  {
    OFFSET 8.64259 1.95398 -2.38835
    CHANNELS 3 Zrotation Xrotation Yrotation
    JOINT LeftLeg
    {
      OFFSET 43.7702 0 0
      CHANNELS 3 Zrotation Xrotation Yrotation
      JOINT LeftFoot
      {
        OFFSET 40.6238 0 0
        CHANNELS 3 Zrotation Xrotation Yrotation
        JOINT LeftToeBase
        {
          OFFSET 12.7242 0 0
          CHANNELS 3 Zrotation Xrotation Yrotation
          End Site
          {
            OFFSET 0 0 0
          }
        }
      }
    }
  }
  JOINT RightUpLeg
  {
    OFFSET -8.2249 1.95398 -2.59336
    CHANNELS 3 Zrotation Xrotation Yrotation
    JOINT RightLeg
    {
      OFFSET 43.5653 0 0
      CHANNELS 3 Zrotation Xrotation Yrotation
      JOINT RightFoot
      {
        OFFSET 40.6238 0 0
        CHANNELS 3 Zrotation Xrotation Yrotation
        JOINT RightToeBase
        {
          OFFSET 12.7242 0 0
          CHANNELS 3 Zrotation Xrotation Yrotation
          End Site
          {
            OFFSET 0 0 0
          }
        }
      }
    }
  }
  JOINT Spine
  {
    OFFSET 0.165834 0.87714 6.61349
    CHANNELS 3 Zrotation Xrotation Yrotation
    JOINT Spine1
    {
      OFFSET 7.38963 1.71661e-005 0
      CHANNELS 3 Zrotation Xrotation Yrotation
      JOINT Spine2
      {
        OFFSET 11.9445 1.14441e-005 0
        CHANNELS 3 Zrotation Xrotation Yrotation
        JOINT Spine3
        {
          OFFSET 14.7254 4.19617e-005 0
          CHANNELS 3 Zrotation Xrotation Yrotation
          JOINT Spine4
          {
            OFFSET 10.9679 0 0
            CHANNELS 3 Zrotation Xrotation Yrotation
            JOINT RightShoulder
            {
              OFFSET 2.46616 -1.6653 3.69651
              CHANNELS 3 Zrotation Xrotation Yrotation
              JOINT RightArm
              {
                OFFSET 13.0012 0 0
                CHANNELS 3 Zrotation Xrotation Yrotation
                JOINT RightForeArm
                {
                  OFFSET 28.7848 1.52588e-005 0
                  CHANNELS 3 Zrotation Xrotation Yrotation
                  JOINT RightHand
                  {
                    OFFSET 26.5688 1.52588e-005 0
                    CHANNELS 3 Zrotation Xrotation Yrotation
                    End Site
                    {
                      OFFSET 0 0 0
                    }
                  }
                }
              }
            }
            JOINT LeftShoulder
            {
              OFFSET 2.38034 -1.29275 -3.7523
              CHANNELS 3 Zrotation Xrotation Yrotation
              JOINT LeftArm
              {
                OFFSET 16.3182 6.10352e-005 0
                CHANNELS 3 Zrotation Xrotation Yrotation
                JOINT LeftForeArm
                {
                  OFFSET 27.0901 0 0
                  CHANNELS 3 Zrotation Xrotation Yrotation
                  JOINT LeftHand
                  {
                    OFFSET 24.5451 1.52588e-005 0
                    CHANNELS 3 Zrotation Xrotation Yrotation
                    End Site
                    {
                      OFFSET 0 0 0
                    }
                  }
                }
              }
            }
            JOINT Neck
            {
              OFFSET 5.0226 -0.0266342 0
              CHANNELS 3 Zrotation Xrotation Yrotation
              JOINT Head
              {
                OFFSET 6.69363 2.86102e-005 0
                CHANNELS 3 Zrotation Xrotation Yrotation
                End Site
                {
                  OFFSET 0 0 0
                }
              }
            }
          }
        }
      }
    }
  }
}
MOTION
Frames:	7
Frame Time:	0.0416667
-30.746 100.046 -33.1392 84.7474 -43.9005 87.2934 -168.95 -35.6329 91.7091 -23.0303 11.2891 3.55849 49.7652 -2.44289 -1.45848 27.983 0.353921 -2.02244 -178.365 47.5361 99.4754 -41.6419 3.3632 -0.212699 72.673 -5.23507 -0.824995 23.4524 -1.60118 2.28769 -3.65029 7.95489 -91.4494 10.9034 -7.93746 -2.13549 -0.744406 -8.02368 -1.78201 -23.4229 -6.92766 -4.43145 -3.4103 -6.92766 -4.43144 98.3233 -24.8316 -90.5912 48.6606 -24.9356 57.9838 -56.9089 20.1457 -89.5086 -10.7731 -0.5704 1.20867 -80.5633 3.33043 85.5206 6.9716 -2.03672 -38.2085 18.0641 -17.3855 -120.972 -0.0101034 -0.14806 -7.16028 35.926 21.2166 4.74024 -0.761813 17.9399 -4.45386 
-24.1537 99.9523 -27.6735 85.7144 -45.4536 86.0905 -169.67 -34.6767 88.1329 -33.4388 12.2571 2.31278 51.5305 -2.49358 -0.913492 30.1377 1.495 -3.22337 -178.801 42.6383 98.1988 -32.1037 1.31474 0.460374 71.0199 -4.83013 -0.614374 23.2989 -1.65166 2.35538 -3.52983 7.95257 -91.3377 10.917 -7.64611 -1.93961 -0.732322 -7.72402 -1.59934 -23.4032 -6.70867 -4.15638 -3.39058 -6.70867 -4.15639 99.0797 -28.6071 -88.4491 46.4054 -29.2465 55.9422 -59.4359 20.8039 -88.7152 -3.66108 -0.0625166 -2.92248 -81.2074 0.266901 84.3233 7.80731 2.75317 -35.1356 18.137 -18.3441 -120.16 -0.607418 -0.129374 -6.92846 34.8575 21.845 6.5846 -0.899637 17.8489 -4.23234 
-17.7542 99.7316 -22.1478 86.6516 -46.6558 85.5552 -168.65 -32.0213 87.0035 -45.6452 17.1589 0.954156 52.3293 -2.72174 0.70292 32.0235 2.06077 -2.94237 -179.215 38.6896 97.6115 -26.8413 3.42212 0.94243 69.1951 -4.2987 -0.309475 24.0508 -1.51309 2.3451 -3.37307 7.95578 -91.2922 10.914 -7.31302 -1.88042 -0.737138 -7.38864 -1.5551 -23.3958 -6.40891 -3.99869 -3.3832 -6.40892 -3.99871 98.1068 -31.668 -90.0333 42.4275 -29.0449 52.2553 -59.3063 21.3014 -90.3045 -2.68109 -0.0669474 -2.65217 -82.0677 -3.78076 83.0503 7.39679 7.90352 -31.7969 17.2702 -18.9762 -120.846 -0.62039 -0.113411 -6.12369 33.9037 22.1248 7.97 -1.46802 17.6585 -3.39774 
-11.5748 99.11 -16.5923 87.4008 -48.4364 85.5171 -166.228 -28.2375 87.495 -58.7612 21.074 -0.454878 53.1439 -2.61885 1.70332 31.7433 2.29639 -4.10629 -179.557 36.0267 97.7937 -26.5217 5.85532 1.25285 69.9149 -4.43913 0.0991086 23.084 -1.17798 0.858124 -3.14702 7.99056 -91.343 10.8407 -6.88607 -2.02804 -0.813095 -6.96861 -1.72168 -23.4522 -5.95766 -4.00941 -3.43951 -5.95765 -4.0094 96.3949 -35.3787 -92.8139 35.4969 -27.6226 46.4633 -58.6475 21.7265 -92.8705 -1.37879 -0.0413654 -2.29342 -83.2117 -10.4644 81.9319 7.08992 11.9392 -26.9839 19.0268 -21.0258 -121.438 1.01083 -0.116791 -5.17714 31.7391 22.9224 12.0667 0.5925 16.9034 -4.90796 
-5.57402 98.1766 -11.0075 87.2758 -50.3801 84.9942 -163.028 -22.9721 88.7138 -72.6955 23.1619 -1.16639 54.3658 -2.06199 2.90872 28.0686 1.47414 -5.42321 179.916 34.3348 98.1013 -28.9971 5.06202 1.47348 70.0886 -4.31494 -0.237911 21.7383 -0.746813 -0.992909 -2.82398 7.95594 -91.4296 10.9055 -6.28329 -2.25171 -0.751684 -6.37626 -1.97205 -23.3646 -5.31592 -4.03947 -3.35194 -5.31593 -4.03947 93.4191 -40.5629 -97.1768 25.0422 -25.1089 40.1692 -56.2605 23.6461 -98.0328 -3.37242 -0.136609 -0.329127 -84.606 -18.1424 80.9394 6.44337 17.704 -21.8942 22.2429 -24.4627 -120.674 -0.103207 -0.127127 -6.22592 29.0994 23.2023 15.944 3.25253 15.8925 -5.97711 
0.401894 96.9546 -5.43103 88.2315 -52.338 86.0447 -159.072 -17.7083 91.137 -86.6875 21.8088 -0.598923 55.414 -1.50593 3.3212 27.9004 1.89438 -6.92019 179.251 30.6767 98.6935 -30.3245 1.80419 1.74195 69.0225 -3.86111 -0.745217 22.8004 -1.38313 1.32358 -2.42838 8.06604 -91.5007 10.6828 -5.52689 -2.4791 -0.978291 -5.63059 -2.23287 -23.5629 -4.52653 -4.02711 -3.55025 -4.52653 -4.02711 89.747 -45.0414 -102.255 14.7394 -20.6753 32.4425 -50.5918 25.2647 -105.026 -4.69795 -0.279865 2.00537 -86.0553 -24.8977 79.7232 3.69996 20.0661 -15.4879 21.1404 -23.851 -120.337 1.08538 -0.0789282 -3.80449 28.8933 22.8097 16.7756 3.63853 15.2339 -5.51286 
6.28789 95.803 0.258157 89.327 -53.5553 88.0468 -155.72 -10.9389 93.9563 -100.503 18.5958 1.49637 57.0971 -0.675855 2.39497 26.5471 1.44975 -6.86286 178.606 26.8508 99.405 -31.5372 -0.430968 2.20527 63.539 -1.8408 0.113331 26.8445 -1.26435 3.04704 -2.07852 8.142 -91.5802 10.5297 -4.86534 -2.70583 -1.13451 -4.97967 -2.48877 -23.6967 -3.82771 -4.04334 -3.68404 -3.82771 -4.04334 86.3056 -48.8127 -106.59 5.4547 -15.7186 22.9438 -43.922 25.9499 -112.401 -6.59253 -0.521497 4.68153 -87.5748 -30.9333 78.4093 -0.801335 23.7808 -6.60925 22.7318 -24.9417 -118.762 -0.0210243 -0.0554109 -3.0451 28.4189 22.1572 16.5814 4.0636 14.7511 -4.91432 
